<?xml version="1.0" encoding="UTF-8" standalone="no"?>
<!DOCTYPE svg PUBLIC "-//W3C//DTD SVG 1.1//EN" "http://www.w3.org/Graphics/SVG/1.1/DTD/svg11.dtd">
<svg width="100%" height="100%" viewBox="0 0 3309 749" version="1.1" xmlns="http://www.w3.org/2000/svg" xmlns:xlink="http://www.w3.org/1999/xlink" xml:space="preserve" xmlns:serif="http://www.serif.com/" style="fill-rule:evenodd;clip-rule:evenodd;stroke-linejoin:round;stroke-miterlimit:2;">
    <g transform="matrix(3.66852,0,0,3.66852,-1780.56,-2830.83)">
        <g transform="matrix(50,0,0,50,559.253,962.512)">
            <path d="M0.386,-0.924L0.386,-0.81L0.267,-0.81L0.267,0.081L0.386,0.081L0.386,0.197L0.135,0.197L0.135,-0.924L0.386,-0.924Z" style="fill-rule:nonzero;"/>
        </g>
        <g transform="matrix(50,0,0,50,584.103,962.512)">
            <path d="M0.323,-0.439L0.226,-0.439L0.226,-0L0.084,-0L0.084,-0.439L0.021,-0.439L0.021,-0.554L0.084,-0.554L0.084,-0.582C0.084,-0.65 0.103,-0.7 0.142,-0.732C0.181,-0.764 0.239,-0.779 0.317,-0.777L0.317,-0.659C0.283,-0.66 0.259,-0.654 0.246,-0.642C0.233,-0.63 0.226,-0.608 0.226,-0.577L0.226,-0.554L0.323,-0.554L0.323,-0.439Z" style="fill-rule:nonzero;"/>
        </g>
        <g transform="matrix(50,0,0,50,601.353,962.512)">
            <path d="M0.209,-0.468C0.227,-0.497 0.251,-0.52 0.28,-0.537C0.309,-0.554 0.342,-0.562 0.379,-0.562L0.379,-0.415L0.342,-0.415C0.298,-0.415 0.265,-0.405 0.243,-0.384C0.22,-0.363 0.209,-0.327 0.209,-0.276L0.209,-0L0.069,-0L0.069,-0.554L0.209,-0.554L0.209,-0.468Z" style="fill-rule:nonzero;"/>
        </g>
        <g transform="matrix(50,0,0,50,621.553,962.512)">
            <path d="M0.315,0.009C0.262,0.009 0.214,-0.003 0.171,-0.027C0.128,-0.05 0.095,-0.084 0.071,-0.127C0.046,-0.17 0.034,-0.22 0.034,-0.277C0.034,-0.334 0.047,-0.384 0.072,-0.427C0.096,-0.47 0.131,-0.504 0.174,-0.528C0.217,-0.551 0.266,-0.563 0.319,-0.563C0.372,-0.563 0.421,-0.551 0.464,-0.528C0.507,-0.504 0.542,-0.47 0.567,-0.427C0.592,-0.384 0.604,-0.334 0.604,-0.277C0.604,-0.22 0.591,-0.17 0.566,-0.127C0.54,-0.084 0.505,-0.05 0.462,-0.027C0.418,-0.003 0.369,0.009 0.315,0.009ZM0.315,-0.113C0.34,-0.113 0.364,-0.119 0.387,-0.132C0.409,-0.144 0.427,-0.162 0.44,-0.187C0.453,-0.212 0.46,-0.242 0.46,-0.277C0.46,-0.33 0.446,-0.37 0.419,-0.399C0.391,-0.427 0.357,-0.441 0.317,-0.441C0.277,-0.441 0.244,-0.427 0.217,-0.399C0.19,-0.37 0.176,-0.33 0.176,-0.277C0.176,-0.224 0.189,-0.184 0.216,-0.156C0.242,-0.127 0.275,-0.113 0.315,-0.113Z" style="fill-rule:nonzero;"/>
        </g>
        <g transform="matrix(50,0,0,50,653.453,962.512)">
            <path d="M0.376,-0.562C0.442,-0.562 0.495,-0.541 0.536,-0.5C0.577,-0.458 0.597,-0.4 0.597,-0.325L0.597,-0L0.457,-0L0.457,-0.306C0.457,-0.35 0.446,-0.384 0.424,-0.408C0.402,-0.431 0.372,-0.443 0.334,-0.443C0.295,-0.443 0.265,-0.431 0.243,-0.408C0.22,-0.384 0.209,-0.35 0.209,-0.306L0.209,-0L0.069,-0L0.069,-0.554L0.209,-0.554L0.209,-0.485C0.228,-0.509 0.252,-0.528 0.281,-0.542C0.31,-0.555 0.341,-0.562 0.376,-0.562Z" style="fill-rule:nonzero;"/>
        </g>
        <g transform="matrix(50,0,0,50,686.503,962.512)">
            <path d="M0.232,-0.439L0.232,-0.171C0.232,-0.152 0.237,-0.139 0.246,-0.131C0.255,-0.122 0.27,-0.118 0.291,-0.118L0.356,-0.118L0.356,-0L0.268,-0C0.15,-0 0.091,-0.057 0.091,-0.172L0.091,-0.439L0.025,-0.439L0.025,-0.554L0.091,-0.554L0.091,-0.691L0.232,-0.691L0.232,-0.554L0.356,-0.554L0.356,-0.439L0.232,-0.439Z" style="fill-rule:nonzero;"/>
        </g>
        <g transform="matrix(50,0,0,50,717.803,962.512)">
            <path d="M0.584,-0.289C0.584,-0.269 0.583,-0.251 0.58,-0.235L0.175,-0.235C0.178,-0.195 0.192,-0.164 0.217,-0.141C0.242,-0.118 0.272,-0.107 0.308,-0.107C0.36,-0.107 0.397,-0.129 0.419,-0.174L0.57,-0.174C0.554,-0.121 0.523,-0.077 0.478,-0.043C0.433,-0.008 0.377,0.009 0.311,0.009C0.258,0.009 0.21,-0.003 0.168,-0.027C0.125,-0.05 0.092,-0.084 0.069,-0.127C0.045,-0.17 0.033,-0.22 0.033,-0.277C0.033,-0.334 0.045,-0.385 0.068,-0.428C0.091,-0.471 0.124,-0.505 0.166,-0.528C0.208,-0.551 0.256,-0.563 0.311,-0.563C0.364,-0.563 0.411,-0.552 0.453,-0.529C0.494,-0.506 0.527,-0.474 0.55,-0.433C0.572,-0.391 0.584,-0.343 0.584,-0.289ZM0.439,-0.329C0.438,-0.365 0.425,-0.394 0.4,-0.416C0.375,-0.437 0.344,-0.448 0.307,-0.448C0.272,-0.448 0.243,-0.438 0.22,-0.417C0.196,-0.396 0.181,-0.366 0.176,-0.329L0.439,-0.329Z" style="fill-rule:nonzero;"/>
        </g>
        <g transform="matrix(50,0,0,50,748.653,962.512)">
            <path d="M0.376,-0.562C0.442,-0.562 0.495,-0.541 0.536,-0.5C0.577,-0.458 0.597,-0.4 0.597,-0.325L0.597,-0L0.457,-0L0.457,-0.306C0.457,-0.35 0.446,-0.384 0.424,-0.408C0.402,-0.431 0.372,-0.443 0.334,-0.443C0.295,-0.443 0.265,-0.431 0.243,-0.408C0.22,-0.384 0.209,-0.35 0.209,-0.306L0.209,-0L0.069,-0L0.069,-0.554L0.209,-0.554L0.209,-0.485C0.228,-0.509 0.252,-0.528 0.281,-0.542C0.31,-0.555 0.341,-0.562 0.376,-0.562Z" style="fill-rule:nonzero;"/>
        </g>
        <g transform="matrix(50,0,0,50,781.703,962.512)">
            <path d="M0.033,-0.279C0.033,-0.335 0.044,-0.385 0.067,-0.428C0.089,-0.471 0.119,-0.505 0.158,-0.528C0.197,-0.551 0.24,-0.563 0.287,-0.563C0.323,-0.563 0.357,-0.555 0.39,-0.54C0.423,-0.524 0.449,-0.503 0.468,-0.477L0.468,-0.74L0.61,-0.74L0.61,-0L0.468,-0L0.468,-0.082C0.451,-0.055 0.426,-0.033 0.395,-0.016C0.364,0.001 0.327,0.009 0.286,0.009C0.239,0.009 0.197,-0.003 0.158,-0.027C0.119,-0.051 0.089,-0.085 0.067,-0.129C0.044,-0.172 0.033,-0.222 0.033,-0.279ZM0.469,-0.277C0.469,-0.311 0.462,-0.34 0.449,-0.365C0.436,-0.389 0.418,-0.408 0.395,-0.421C0.372,-0.434 0.348,-0.44 0.322,-0.44C0.296,-0.44 0.272,-0.434 0.25,-0.421C0.228,-0.408 0.21,-0.39 0.197,-0.366C0.183,-0.341 0.176,-0.312 0.176,-0.279C0.176,-0.246 0.183,-0.217 0.197,-0.192C0.21,-0.167 0.228,-0.147 0.251,-0.134C0.273,-0.121 0.297,-0.114 0.322,-0.114C0.348,-0.114 0.372,-0.121 0.395,-0.134C0.418,-0.147 0.436,-0.165 0.449,-0.19C0.462,-0.214 0.469,-0.243 0.469,-0.277Z" style="fill-rule:nonzero;"/>
        </g>
        <g transform="matrix(50,0,0,50,827.503,962.512)">
            <path d="M0.837,-0.554L0.675,-0L0.524,-0L0.423,-0.387L0.322,-0L0.17,-0L0.007,-0.554L0.149,-0.554L0.247,-0.132L0.353,-0.554L0.501,-0.554L0.605,-0.133L0.703,-0.554L0.837,-0.554Z" style="fill-rule:nonzero;"/>
        </g>
        <g transform="matrix(50,0,0,50,869.703,962.512)">
            <path d="M0.584,-0.289C0.584,-0.269 0.583,-0.251 0.58,-0.235L0.175,-0.235C0.178,-0.195 0.192,-0.164 0.217,-0.141C0.242,-0.118 0.272,-0.107 0.308,-0.107C0.36,-0.107 0.397,-0.129 0.419,-0.174L0.57,-0.174C0.554,-0.121 0.523,-0.077 0.478,-0.043C0.433,-0.008 0.377,0.009 0.311,0.009C0.258,0.009 0.21,-0.003 0.168,-0.027C0.125,-0.05 0.092,-0.084 0.069,-0.127C0.045,-0.17 0.033,-0.22 0.033,-0.277C0.033,-0.334 0.045,-0.385 0.068,-0.428C0.091,-0.471 0.124,-0.505 0.166,-0.528C0.208,-0.551 0.256,-0.563 0.311,-0.563C0.364,-0.563 0.411,-0.552 0.453,-0.529C0.494,-0.506 0.527,-0.474 0.55,-0.433C0.572,-0.391 0.584,-0.343 0.584,-0.289ZM0.439,-0.329C0.438,-0.365 0.425,-0.394 0.4,-0.416C0.375,-0.437 0.344,-0.448 0.307,-0.448C0.272,-0.448 0.243,-0.438 0.22,-0.417C0.196,-0.396 0.181,-0.366 0.176,-0.329L0.439,-0.329Z" style="fill-rule:nonzero;"/>
        </g>
        <g transform="matrix(50,0,0,50,900.553,962.512)">
            <path d="M0.209,-0.473C0.227,-0.5 0.252,-0.521 0.284,-0.538C0.315,-0.555 0.351,-0.563 0.392,-0.563C0.439,-0.563 0.482,-0.551 0.521,-0.528C0.559,-0.505 0.589,-0.471 0.612,-0.429C0.634,-0.385 0.645,-0.336 0.645,-0.279C0.645,-0.222 0.634,-0.172 0.612,-0.129C0.589,-0.085 0.559,-0.051 0.521,-0.027C0.482,-0.003 0.439,0.009 0.392,0.009C0.351,0.009 0.315,0.001 0.284,-0.016C0.253,-0.032 0.228,-0.053 0.209,-0.079L0.209,-0L0.069,-0L0.069,-0.74L0.209,-0.74L0.209,-0.473ZM0.502,-0.279C0.502,-0.312 0.495,-0.341 0.482,-0.366C0.468,-0.39 0.45,-0.408 0.428,-0.421C0.405,-0.434 0.381,-0.44 0.355,-0.44C0.33,-0.44 0.306,-0.434 0.284,-0.421C0.261,-0.408 0.243,-0.389 0.23,-0.364C0.216,-0.339 0.209,-0.31 0.209,-0.277C0.209,-0.244 0.216,-0.215 0.23,-0.19C0.243,-0.165 0.261,-0.147 0.284,-0.134C0.306,-0.121 0.33,-0.114 0.355,-0.114C0.381,-0.114 0.405,-0.121 0.428,-0.134C0.45,-0.147 0.468,-0.166 0.482,-0.191C0.495,-0.216 0.502,-0.245 0.502,-0.279Z" style="fill-rule:nonzero;"/>
        </g>
        <g transform="matrix(50,0,0,50,934.453,962.512)">
            <path d="M0.281,0.009C0.236,0.009 0.195,0.001 0.159,-0.016C0.123,-0.032 0.094,-0.054 0.074,-0.082C0.053,-0.11 0.041,-0.141 0.039,-0.175L0.18,-0.175C0.183,-0.154 0.193,-0.136 0.212,-0.122C0.23,-0.108 0.253,-0.101 0.28,-0.101C0.307,-0.101 0.328,-0.106 0.343,-0.117C0.358,-0.128 0.365,-0.141 0.365,-0.158C0.365,-0.176 0.356,-0.19 0.338,-0.199C0.319,-0.208 0.29,-0.217 0.25,-0.228C0.209,-0.238 0.175,-0.248 0.149,-0.259C0.122,-0.27 0.099,-0.286 0.081,-0.308C0.062,-0.33 0.052,-0.36 0.052,-0.397C0.052,-0.428 0.061,-0.456 0.079,-0.481C0.096,-0.506 0.122,-0.526 0.155,-0.541C0.188,-0.556 0.226,-0.563 0.271,-0.563C0.337,-0.563 0.39,-0.547 0.429,-0.514C0.468,-0.481 0.49,-0.436 0.494,-0.38L0.36,-0.38C0.358,-0.402 0.349,-0.42 0.333,-0.433C0.316,-0.446 0.294,-0.452 0.267,-0.452C0.242,-0.452 0.222,-0.447 0.209,-0.438C0.195,-0.429 0.188,-0.416 0.188,-0.399C0.188,-0.38 0.197,-0.366 0.216,-0.357C0.235,-0.347 0.264,-0.337 0.303,-0.327C0.343,-0.317 0.376,-0.307 0.402,-0.296C0.428,-0.285 0.451,-0.269 0.47,-0.247C0.489,-0.224 0.498,-0.195 0.499,-0.158C0.499,-0.126 0.49,-0.097 0.473,-0.072C0.455,-0.047 0.43,-0.027 0.397,-0.013C0.364,0.002 0.325,0.009 0.281,0.009Z" style="fill-rule:nonzero;"/>
        </g>
        <g transform="matrix(50,0,0,50,961.703,962.512)">
            <path d="M0.14,-0.62C0.115,-0.62 0.095,-0.628 0.079,-0.644C0.062,-0.659 0.054,-0.679 0.054,-0.702C0.054,-0.725 0.062,-0.745 0.079,-0.761C0.095,-0.776 0.115,-0.784 0.14,-0.784C0.165,-0.784 0.185,-0.776 0.202,-0.761C0.218,-0.745 0.226,-0.725 0.226,-0.702C0.226,-0.679 0.218,-0.659 0.202,-0.644C0.185,-0.628 0.165,-0.62 0.14,-0.62ZM0.209,-0.554L0.209,-0L0.069,-0L0.069,-0.554L0.209,-0.554Z" style="fill-rule:nonzero;"/>
        </g>
        <g transform="matrix(50,0,0,50,975.603,962.512)">
            <path d="M0.232,-0.439L0.232,-0.171C0.232,-0.152 0.237,-0.139 0.246,-0.131C0.255,-0.122 0.27,-0.118 0.291,-0.118L0.356,-0.118L0.356,-0L0.268,-0C0.15,-0 0.091,-0.057 0.091,-0.172L0.091,-0.439L0.025,-0.439L0.025,-0.554L0.091,-0.554L0.091,-0.691L0.232,-0.691L0.232,-0.554L0.356,-0.554L0.356,-0.439L0.232,-0.439Z" style="fill-rule:nonzero;"/>
        </g>
        <g transform="matrix(50,0,0,50,995.003,962.512)">
            <path d="M0.584,-0.289C0.584,-0.269 0.583,-0.251 0.58,-0.235L0.175,-0.235C0.178,-0.195 0.192,-0.164 0.217,-0.141C0.242,-0.118 0.272,-0.107 0.308,-0.107C0.36,-0.107 0.397,-0.129 0.419,-0.174L0.57,-0.174C0.554,-0.121 0.523,-0.077 0.478,-0.043C0.433,-0.008 0.377,0.009 0.311,0.009C0.258,0.009 0.21,-0.003 0.168,-0.027C0.125,-0.05 0.092,-0.084 0.069,-0.127C0.045,-0.17 0.033,-0.22 0.033,-0.277C0.033,-0.334 0.045,-0.385 0.068,-0.428C0.091,-0.471 0.124,-0.505 0.166,-0.528C0.208,-0.551 0.256,-0.563 0.311,-0.563C0.364,-0.563 0.411,-0.552 0.453,-0.529C0.494,-0.506 0.527,-0.474 0.55,-0.433C0.572,-0.391 0.584,-0.343 0.584,-0.289ZM0.439,-0.329C0.438,-0.365 0.425,-0.394 0.4,-0.416C0.375,-0.437 0.344,-0.448 0.307,-0.448C0.272,-0.448 0.243,-0.438 0.22,-0.417C0.196,-0.396 0.181,-0.366 0.176,-0.329L0.439,-0.329Z" style="fill-rule:nonzero;"/>
        </g>
        <g transform="matrix(50,0,0,50,1037.75,962.512)">
            <path d="M0.033,-0.279C0.033,-0.335 0.044,-0.385 0.067,-0.428C0.089,-0.471 0.119,-0.505 0.158,-0.528C0.197,-0.551 0.24,-0.563 0.287,-0.563C0.323,-0.563 0.357,-0.555 0.39,-0.54C0.423,-0.524 0.449,-0.503 0.468,-0.477L0.468,-0.74L0.61,-0.74L0.61,-0L0.468,-0L0.468,-0.082C0.451,-0.055 0.426,-0.033 0.395,-0.016C0.364,0.001 0.327,0.009 0.286,0.009C0.239,0.009 0.197,-0.003 0.158,-0.027C0.119,-0.051 0.089,-0.085 0.067,-0.129C0.044,-0.172 0.033,-0.222 0.033,-0.279ZM0.469,-0.277C0.469,-0.311 0.462,-0.34 0.449,-0.365C0.436,-0.389 0.418,-0.408 0.395,-0.421C0.372,-0.434 0.348,-0.44 0.322,-0.44C0.296,-0.44 0.272,-0.434 0.25,-0.421C0.228,-0.408 0.21,-0.39 0.197,-0.366C0.183,-0.341 0.176,-0.312 0.176,-0.279C0.176,-0.246 0.183,-0.217 0.197,-0.192C0.21,-0.167 0.228,-0.147 0.251,-0.134C0.273,-0.121 0.297,-0.114 0.322,-0.114C0.348,-0.114 0.372,-0.121 0.395,-0.134C0.418,-0.147 0.436,-0.165 0.449,-0.19C0.462,-0.214 0.469,-0.243 0.469,-0.277Z" style="fill-rule:nonzero;"/>
        </g>
        <g transform="matrix(50,0,0,50,1071.65,962.512)">
            <path d="M0.584,-0.289C0.584,-0.269 0.583,-0.251 0.58,-0.235L0.175,-0.235C0.178,-0.195 0.192,-0.164 0.217,-0.141C0.242,-0.118 0.272,-0.107 0.308,-0.107C0.36,-0.107 0.397,-0.129 0.419,-0.174L0.57,-0.174C0.554,-0.121 0.523,-0.077 0.478,-0.043C0.433,-0.008 0.377,0.009 0.311,0.009C0.258,0.009 0.21,-0.003 0.168,-0.027C0.125,-0.05 0.092,-0.084 0.069,-0.127C0.045,-0.17 0.033,-0.22 0.033,-0.277C0.033,-0.334 0.045,-0.385 0.068,-0.428C0.091,-0.471 0.124,-0.505 0.166,-0.528C0.208,-0.551 0.256,-0.563 0.311,-0.563C0.364,-0.563 0.411,-0.552 0.453,-0.529C0.494,-0.506 0.527,-0.474 0.55,-0.433C0.572,-0.391 0.584,-0.343 0.584,-0.289ZM0.439,-0.329C0.438,-0.365 0.425,-0.394 0.4,-0.416C0.375,-0.437 0.344,-0.448 0.307,-0.448C0.272,-0.448 0.243,-0.438 0.22,-0.417C0.196,-0.396 0.181,-0.366 0.176,-0.329L0.439,-0.329Z" style="fill-rule:nonzero;"/>
        </g>
        <g transform="matrix(50,0,0,50,1102.5,962.512)">
            <path d="M0.3,-0.129L0.44,-0.554L0.589,-0.554L0.384,-0L0.214,-0L0.01,-0.554L0.16,-0.554L0.3,-0.129Z" style="fill-rule:nonzero;"/>
        </g>
        <g transform="matrix(50,0,0,50,1132.45,962.512)">
            <path d="M0.584,-0.289C0.584,-0.269 0.583,-0.251 0.58,-0.235L0.175,-0.235C0.178,-0.195 0.192,-0.164 0.217,-0.141C0.242,-0.118 0.272,-0.107 0.308,-0.107C0.36,-0.107 0.397,-0.129 0.419,-0.174L0.57,-0.174C0.554,-0.121 0.523,-0.077 0.478,-0.043C0.433,-0.008 0.377,0.009 0.311,0.009C0.258,0.009 0.21,-0.003 0.168,-0.027C0.125,-0.05 0.092,-0.084 0.069,-0.127C0.045,-0.17 0.033,-0.22 0.033,-0.277C0.033,-0.334 0.045,-0.385 0.068,-0.428C0.091,-0.471 0.124,-0.505 0.166,-0.528C0.208,-0.551 0.256,-0.563 0.311,-0.563C0.364,-0.563 0.411,-0.552 0.453,-0.529C0.494,-0.506 0.527,-0.474 0.55,-0.433C0.572,-0.391 0.584,-0.343 0.584,-0.289ZM0.439,-0.329C0.438,-0.365 0.425,-0.394 0.4,-0.416C0.375,-0.437 0.344,-0.448 0.307,-0.448C0.272,-0.448 0.243,-0.438 0.22,-0.417C0.196,-0.396 0.181,-0.366 0.176,-0.329L0.439,-0.329Z" style="fill-rule:nonzero;"/>
        </g>
        <g transform="matrix(50,0,0,50,1163.3,962.512)">
            <rect x="0.069" y="-0.74" width="0.14" height="0.74" style="fill-rule:nonzero;"/>
        </g>
        <g transform="matrix(50,0,0,50,1177.2,962.512)">
            <path d="M0.315,0.009C0.262,0.009 0.214,-0.003 0.171,-0.027C0.128,-0.05 0.095,-0.084 0.071,-0.127C0.046,-0.17 0.034,-0.22 0.034,-0.277C0.034,-0.334 0.047,-0.384 0.072,-0.427C0.096,-0.47 0.131,-0.504 0.174,-0.528C0.217,-0.551 0.266,-0.563 0.319,-0.563C0.372,-0.563 0.421,-0.551 0.464,-0.528C0.507,-0.504 0.542,-0.47 0.567,-0.427C0.592,-0.384 0.604,-0.334 0.604,-0.277C0.604,-0.22 0.591,-0.17 0.566,-0.127C0.54,-0.084 0.505,-0.05 0.462,-0.027C0.418,-0.003 0.369,0.009 0.315,0.009ZM0.315,-0.113C0.34,-0.113 0.364,-0.119 0.387,-0.132C0.409,-0.144 0.427,-0.162 0.44,-0.187C0.453,-0.212 0.46,-0.242 0.46,-0.277C0.46,-0.33 0.446,-0.37 0.419,-0.399C0.391,-0.427 0.357,-0.441 0.317,-0.441C0.277,-0.441 0.244,-0.427 0.217,-0.399C0.19,-0.37 0.176,-0.33 0.176,-0.277C0.176,-0.224 0.189,-0.184 0.216,-0.156C0.242,-0.127 0.275,-0.113 0.315,-0.113Z" style="fill-rule:nonzero;"/>
        </g>
        <g transform="matrix(50,0,0,50,1209.1,962.512)">
            <path d="M0.209,-0.474C0.227,-0.499 0.252,-0.521 0.284,-0.538C0.315,-0.555 0.351,-0.563 0.392,-0.563C0.439,-0.563 0.482,-0.551 0.521,-0.528C0.559,-0.505 0.589,-0.471 0.612,-0.429C0.634,-0.385 0.645,-0.336 0.645,-0.279C0.645,-0.222 0.634,-0.172 0.612,-0.129C0.589,-0.085 0.559,-0.051 0.521,-0.027C0.482,-0.003 0.439,0.009 0.392,0.009C0.351,0.009 0.316,0.001 0.285,-0.016C0.254,-0.033 0.228,-0.054 0.209,-0.079L0.209,0.264L0.069,0.264L0.069,-0.554L0.209,-0.554L0.209,-0.474ZM0.502,-0.279C0.502,-0.312 0.495,-0.341 0.482,-0.366C0.468,-0.39 0.45,-0.408 0.428,-0.421C0.405,-0.434 0.381,-0.44 0.355,-0.44C0.33,-0.44 0.306,-0.434 0.284,-0.421C0.261,-0.408 0.243,-0.389 0.23,-0.364C0.216,-0.339 0.209,-0.31 0.209,-0.277C0.209,-0.244 0.216,-0.215 0.23,-0.19C0.243,-0.165 0.261,-0.147 0.284,-0.134C0.306,-0.121 0.33,-0.114 0.355,-0.114C0.381,-0.114 0.405,-0.121 0.428,-0.134C0.45,-0.147 0.468,-0.166 0.482,-0.191C0.495,-0.216 0.502,-0.245 0.502,-0.279Z" style="fill-rule:nonzero;"/>
        </g>
        <g transform="matrix(50,0,0,50,1243,962.512)">
            <path d="M0.584,-0.289C0.584,-0.269 0.583,-0.251 0.58,-0.235L0.175,-0.235C0.178,-0.195 0.192,-0.164 0.217,-0.141C0.242,-0.118 0.272,-0.107 0.308,-0.107C0.36,-0.107 0.397,-0.129 0.419,-0.174L0.57,-0.174C0.554,-0.121 0.523,-0.077 0.478,-0.043C0.433,-0.008 0.377,0.009 0.311,0.009C0.258,0.009 0.21,-0.003 0.168,-0.027C0.125,-0.05 0.092,-0.084 0.069,-0.127C0.045,-0.17 0.033,-0.22 0.033,-0.277C0.033,-0.334 0.045,-0.385 0.068,-0.428C0.091,-0.471 0.124,-0.505 0.166,-0.528C0.208,-0.551 0.256,-0.563 0.311,-0.563C0.364,-0.563 0.411,-0.552 0.453,-0.529C0.494,-0.506 0.527,-0.474 0.55,-0.433C0.572,-0.391 0.584,-0.343 0.584,-0.289ZM0.439,-0.329C0.438,-0.365 0.425,-0.394 0.4,-0.416C0.375,-0.437 0.344,-0.448 0.307,-0.448C0.272,-0.448 0.243,-0.438 0.22,-0.417C0.196,-0.396 0.181,-0.366 0.176,-0.329L0.439,-0.329Z" style="fill-rule:nonzero;"/>
        </g>
        <g transform="matrix(50,0,0,50,1273.85,962.512)">
            <path d="M0.209,-0.468C0.227,-0.497 0.251,-0.52 0.28,-0.537C0.309,-0.554 0.342,-0.562 0.379,-0.562L0.379,-0.415L0.342,-0.415C0.298,-0.415 0.265,-0.405 0.243,-0.384C0.22,-0.363 0.209,-0.327 0.209,-0.276L0.209,-0L0.069,-0L0.069,-0.554L0.209,-0.554L0.209,-0.468Z" style="fill-rule:nonzero;"/>
        </g>
        <g transform="matrix(50,0,0,50,1294.05,962.512)">
            <path d="M0.361,0.197L0.11,0.197L0.11,0.081L0.229,0.081L0.229,-0.81L0.11,-0.81L0.11,-0.924L0.361,-0.924L0.361,0.197Z" style="fill-rule:nonzero;"/>
        </g>
    </g>
    <g transform="matrix(12.8622,0,0,12.8622,-6937.28,-11922.2)">
        <g transform="matrix(50,0,0,50,559.253,962.512)">
            <path d="M0.42,-0L0.274,-0.265L0.233,-0.265L0.233,-0L0.062,-0L0.062,-0.702L0.349,-0.702C0.404,-0.702 0.452,-0.692 0.491,-0.673C0.53,-0.654 0.559,-0.627 0.578,-0.594C0.597,-0.56 0.607,-0.522 0.607,-0.481C0.607,-0.434 0.594,-0.393 0.568,-0.356C0.541,-0.319 0.502,-0.293 0.451,-0.278L0.613,-0L0.42,-0ZM0.233,-0.386L0.339,-0.386C0.37,-0.386 0.394,-0.394 0.41,-0.409C0.425,-0.424 0.433,-0.446 0.433,-0.474C0.433,-0.501 0.425,-0.522 0.41,-0.537C0.394,-0.552 0.37,-0.56 0.339,-0.56L0.233,-0.56L0.233,-0.386Z" style="fill-rule:nonzero;"/>
        </g>
        <g transform="matrix(50,0,0,50,591.853,962.512)">
            <path d="M0.499,-0.124L0.237,-0.124L0.195,-0L0.016,-0L0.27,-0.702L0.468,-0.702L0.722,-0L0.541,-0L0.499,-0.124ZM0.455,-0.256L0.368,-0.513L0.282,-0.256L0.455,-0.256Z" style="fill-rule:nonzero;"/>
        </g>
        <g transform="matrix(50,0,0,50,628.703,962.512)">
            <path d="M0.528,-0.48C0.515,-0.503 0.497,-0.521 0.474,-0.534C0.45,-0.546 0.422,-0.552 0.39,-0.552C0.335,-0.552 0.29,-0.534 0.257,-0.498C0.224,-0.461 0.207,-0.413 0.207,-0.352C0.207,-0.287 0.225,-0.237 0.26,-0.201C0.295,-0.164 0.343,-0.146 0.404,-0.146C0.446,-0.146 0.482,-0.157 0.511,-0.178C0.54,-0.199 0.561,-0.23 0.574,-0.27L0.357,-0.27L0.357,-0.396L0.729,-0.396L0.729,-0.237C0.716,-0.194 0.695,-0.155 0.665,-0.118C0.634,-0.081 0.596,-0.052 0.549,-0.029C0.502,-0.006 0.45,0.005 0.391,0.005C0.322,0.005 0.26,-0.01 0.206,-0.041C0.151,-0.071 0.109,-0.113 0.079,-0.167C0.048,-0.221 0.033,-0.283 0.033,-0.352C0.033,-0.421 0.048,-0.483 0.079,-0.538C0.109,-0.592 0.151,-0.634 0.205,-0.665C0.259,-0.695 0.321,-0.71 0.39,-0.71C0.474,-0.71 0.545,-0.69 0.603,-0.649C0.66,-0.608 0.698,-0.552 0.717,-0.48L0.528,-0.48Z" style="fill-rule:nonzero;"/>
        </g>
        <g transform="matrix(50,0,0,50,666.803,962.512)">
            <path d="M0.42,-0L0.274,-0.265L0.233,-0.265L0.233,-0L0.062,-0L0.062,-0.702L0.349,-0.702C0.404,-0.702 0.452,-0.692 0.491,-0.673C0.53,-0.654 0.559,-0.627 0.578,-0.594C0.597,-0.56 0.607,-0.522 0.607,-0.481C0.607,-0.434 0.594,-0.393 0.568,-0.356C0.541,-0.319 0.502,-0.293 0.451,-0.278L0.613,-0L0.42,-0ZM0.233,-0.386L0.339,-0.386C0.37,-0.386 0.394,-0.394 0.41,-0.409C0.425,-0.424 0.433,-0.446 0.433,-0.474C0.433,-0.501 0.425,-0.522 0.41,-0.537C0.394,-0.552 0.37,-0.56 0.339,-0.56L0.233,-0.56L0.233,-0.386Z" style="fill-rule:nonzero;"/>
        </g>
        <g transform="matrix(50,0,0,50,699.403,962.512)">
            <path d="M0.394,0.007C0.328,0.007 0.268,-0.008 0.213,-0.039C0.158,-0.07 0.114,-0.113 0.082,-0.168C0.049,-0.223 0.033,-0.284 0.033,-0.353C0.033,-0.422 0.049,-0.483 0.082,-0.538C0.114,-0.593 0.158,-0.635 0.213,-0.666C0.268,-0.697 0.328,-0.712 0.394,-0.712C0.46,-0.712 0.521,-0.697 0.576,-0.666C0.631,-0.635 0.674,-0.593 0.706,-0.538C0.737,-0.483 0.753,-0.422 0.753,-0.353C0.753,-0.284 0.737,-0.223 0.705,-0.168C0.673,-0.113 0.63,-0.07 0.575,-0.039C0.52,-0.008 0.46,0.007 0.394,0.007ZM0.394,-0.149C0.45,-0.149 0.495,-0.168 0.529,-0.205C0.562,-0.242 0.579,-0.292 0.579,-0.353C0.579,-0.415 0.562,-0.464 0.529,-0.502C0.495,-0.539 0.45,-0.557 0.394,-0.557C0.337,-0.557 0.292,-0.539 0.259,-0.502C0.225,-0.465 0.208,-0.416 0.208,-0.353C0.208,-0.291 0.225,-0.242 0.259,-0.205C0.292,-0.167 0.337,-0.149 0.394,-0.149Z" style="fill-rule:nonzero;"/>
        </g>
        <g transform="matrix(50,0,0,50,738.703,962.512)">
            <path d="M0.528,-0.48C0.515,-0.503 0.497,-0.521 0.474,-0.534C0.45,-0.546 0.422,-0.552 0.39,-0.552C0.335,-0.552 0.29,-0.534 0.257,-0.498C0.224,-0.461 0.207,-0.413 0.207,-0.352C0.207,-0.287 0.225,-0.237 0.26,-0.201C0.295,-0.164 0.343,-0.146 0.404,-0.146C0.446,-0.146 0.482,-0.157 0.511,-0.178C0.54,-0.199 0.561,-0.23 0.574,-0.27L0.357,-0.27L0.357,-0.396L0.729,-0.396L0.729,-0.237C0.716,-0.194 0.695,-0.155 0.665,-0.118C0.634,-0.081 0.596,-0.052 0.549,-0.029C0.502,-0.006 0.45,0.005 0.391,0.005C0.322,0.005 0.26,-0.01 0.206,-0.041C0.151,-0.071 0.109,-0.113 0.079,-0.167C0.048,-0.221 0.033,-0.283 0.033,-0.352C0.033,-0.421 0.048,-0.483 0.079,-0.538C0.109,-0.592 0.151,-0.634 0.205,-0.665C0.259,-0.695 0.321,-0.71 0.39,-0.71C0.474,-0.71 0.545,-0.69 0.603,-0.649C0.66,-0.608 0.698,-0.552 0.717,-0.48L0.528,-0.48Z" style="fill-rule:nonzero;"/>
        </g>
    </g>
    <g transform="matrix(648.982,0,0,648.982,-59.0573,600.283)">
        <path d="M0.091,-0.42C0.124,-0.421 0.148,-0.428 0.163,-0.442C0.178,-0.455 0.186,-0.473 0.186,-0.497C0.186,-0.515 0.183,-0.551 0.176,-0.604C0.175,-0.609 0.173,-0.626 0.17,-0.656C0.167,-0.685 0.165,-0.711 0.165,-0.734C0.165,-0.791 0.182,-0.835 0.217,-0.867C0.252,-0.898 0.298,-0.914 0.356,-0.914L0.428,-0.914L0.428,-0.774L0.389,-0.774C0.368,-0.774 0.352,-0.769 0.343,-0.76C0.334,-0.751 0.329,-0.736 0.329,-0.717C0.329,-0.702 0.332,-0.669 0.337,-0.617C0.343,-0.552 0.346,-0.51 0.346,-0.49C0.346,-0.453 0.337,-0.423 0.32,-0.399C0.302,-0.375 0.275,-0.36 0.239,-0.353L0.239,-0.351C0.275,-0.344 0.302,-0.328 0.32,-0.305C0.337,-0.281 0.346,-0.25 0.346,-0.213C0.346,-0.193 0.343,-0.151 0.337,-0.086C0.332,-0.035 0.329,-0.002 0.329,0.013C0.329,0.032 0.334,0.047 0.343,0.057C0.352,0.066 0.368,0.071 0.389,0.071L0.428,0.071L0.428,0.211L0.356,0.211C0.298,0.211 0.252,0.195 0.217,0.164C0.182,0.132 0.165,0.087 0.165,0.03C0.165,0.007 0.167,-0.02 0.17,-0.049C0.173,-0.078 0.175,-0.095 0.176,-0.1C0.183,-0.153 0.186,-0.189 0.186,-0.207C0.186,-0.23 0.178,-0.248 0.163,-0.262C0.148,-0.275 0.124,-0.283 0.091,-0.284L0.091,-0.42Z" style="fill-rule:nonzero;"/>
    </g>
    <g transform="matrix(648.982,0,0,648.982,3043.45,600.283)">
        <path d="M0.408,-0.284C0.375,-0.283 0.351,-0.275 0.336,-0.262C0.321,-0.248 0.313,-0.23 0.313,-0.207C0.313,-0.189 0.316,-0.153 0.323,-0.1C0.324,-0.095 0.326,-0.078 0.329,-0.049C0.332,-0.02 0.334,0.007 0.334,0.03C0.334,0.087 0.317,0.132 0.282,0.164C0.247,0.195 0.201,0.211 0.143,0.211L0.071,0.211L0.071,0.071L0.11,0.071C0.131,0.071 0.147,0.066 0.156,0.057C0.165,0.047 0.17,0.032 0.17,0.013C0.17,-0.002 0.167,-0.035 0.162,-0.086C0.156,-0.151 0.153,-0.193 0.153,-0.213C0.153,-0.25 0.162,-0.281 0.18,-0.305C0.197,-0.328 0.224,-0.344 0.26,-0.351L0.26,-0.353C0.224,-0.36 0.197,-0.375 0.18,-0.399C0.162,-0.423 0.153,-0.453 0.153,-0.49C0.153,-0.51 0.156,-0.552 0.162,-0.617C0.167,-0.669 0.17,-0.702 0.17,-0.717C0.17,-0.736 0.165,-0.751 0.156,-0.76C0.147,-0.769 0.131,-0.774 0.11,-0.774L0.071,-0.774L0.071,-0.914L0.143,-0.914C0.201,-0.914 0.247,-0.898 0.282,-0.867C0.317,-0.835 0.334,-0.791 0.334,-0.734C0.334,-0.711 0.332,-0.685 0.329,-0.656C0.326,-0.626 0.324,-0.609 0.323,-0.604C0.316,-0.551 0.313,-0.515 0.313,-0.497C0.313,-0.473 0.321,-0.455 0.336,-0.442C0.351,-0.428 0.375,-0.421 0.408,-0.42L0.408,-0.284Z" style="fill-rule:nonzero;"/>
    </g>
</svg>
